PathFileType	4	(X/Y/Z)	Patient4_TMGait_0pt5_01_left_02.trc.trc
DataRate	CameraRate	NumFrames	NumMarkers	Units	OrigDataRate	OrigDataStartFrame	OrigNumFrames
76.086956521739	76.086956521739	4	33	mm	76.086956521739	1	       141
Frame#	Time	L.ASIS			Sacral			L.Shoulder			Chest			R.Shoulder			Neck			R.ASIS			R.Thigh.Superior			R.Thigh.Lateral			R.Thigh.Inferior			R.Patella			L.Thigh.Superior			L.Thigh.Lateral			L.Thigh.Inferior			L.Patella			L.Shank.Superior			L.Shank.Lateral			L.Shank.Inferior			R.Shank.Superior			R.Shank.Lateral			R.Shank.Inferior			R.Heel			R.Midfoot.Superior			R.Midfoot.Lateral			R.Toe			L.Heel			L.Midfoot.Lateral			L.Midfoot.Superior			L.Toe			L.Elbow			L.Wrist			R.Elbow			R.Wrist			
		X1	Y1	Z1	X2	Y2	Z2	X3	Y3	Z3	X4	Y4	Z4	X5	Y5	Z5	X6	Y6	Z6	X7	Y7	Z7	X8	Y8	Z8	X9	Y9	Z9	X10	Y10	Z10	X11	Y11	Z11	X12	Y12	Z12	X13	Y13	Z13	X14	Y14	Z14	X15	Y15	Z15	X16	Y16	Z16	X17	Y17	Z17	X18	Y18	Z18	X19	Y19	Z19	X20	Y20	Z20	X21	Y21	Z21	X22	Y22	Z22	X23	Y23	Z23	X24	Y24	Z24	X25	Y25	Z25	X26	Y26	Z26	X27	Y27	Z27	X28	Y28	Z28	X29	Y29	Z29	X30	Y30	Z30	X31	Y31	Z31	X32	Y32	Z32	X33	Y33	Z33	

1	2.520000000000	762.674702786539	966.079165764428	353.176760423966	555.561206778160	1003.960490076953	520.499965857991	706.783465038061	1438.843304889234	339.068477814155	818.766969595130	1369.821986452781	495.100236197625	739.553117596768	1438.103479622460	674.346388522670	712.711045538142	1497.988446706154	491.169978644686	792.172639146941	942.740237909286	625.769188708800	833.924038377872	741.122823255540	592.709375568758	754.000754500387	632.513024359641	651.970777033511	827.719095190600	580.698015881120	568.051840725963	826.832982491382	491.322632885816	571.368543222537	841.440060876683	775.336276172156	378.742947753567	789.419676203214	649.649111654768	307.350694865960	891.356261703102	583.645788212806	365.409051665898	900.571596129637	492.851365455956	359.043392520770	834.053298554447	426.585640582455	354.944894048571	691.969175440853	381.484443473070	309.503399398626	682.684424544895	253.164888034257	367.624280972551	797.810538199712	402.930966137150	580.112523601744	727.142635913121	299.660133096017	641.780999135095	766.019362326968	205.172352215192	577.921297360518	627.669808622330	42.478923906481	548.393256671348	798.823501516891	97.305116218961	583.842471942696	710.805796971555	36.214058872983	623.581773120057	918.659564425876	46.033309220478	612.812722143347	492.464476097726	183.292482011872	410.640056633054	550.055691227550	139.717963353540	328.855515035484	655.591269390949	152.279087547566	347.065179879144	737.659779969097	43.662609013251	317.285206736133	659.887901194933	1087.842212290792	215.440281139141	773.505771772379	850.909591584654	202.734644355574	720.516757264356	1101.491518765917	812.847976556914	873.261488843355	890.018103185651	811.287684296742	
2	2.533142857143	761.435531026576	966.819216009282	353.565133418544	555.095769737829	1004.580600450824	521.635748498004	706.421976931107	1439.042285367853	339.525249174103	819.039280356663	1369.932658605797	495.106902497369	740.937567294694	1438.695299276221	674.665196257290	713.134417080868	1498.329948472897	491.529112829571	791.837613153628	942.682523975100	625.998638002889	832.323631031891	740.797963049813	592.285749507686	752.217788866846	632.597668989220	652.082885137597	825.095655305522	580.414596597232	567.791654197101	823.757587815724	491.110894692378	571.174249482115	841.482495083040	777.276024879507	379.254185051325	790.340273601343	651.160623561071	307.964843626343	892.582407110836	585.888599434850	365.993451689581	902.709250297197	495.551968989698	359.815016286403	837.902623225375	428.229613139869	355.307119873080	697.227706874833	379.314419498868	309.462187014263	691.645163924547	250.521168860062	367.067257554523	794.660798341646	402.822461152579	580.019371733687	723.857864769879	299.667446514869	641.782627734342	762.499516098540	205.156681823158	577.836192848984	623.860719645081	42.449053816309	548.379902466563	795.067780001551	97.306772577005	583.834739211166	707.021526357341	36.211479527894	623.574739744466	914.874284884856	46.068896282440	612.838608916478	503.597575740085	174.954947637647	409.524226594112	562.471643399538	133.437336148767	327.667642481456	667.507581828800	149.066656944604	346.109489504764	752.771365455739	43.160144506672	316.025721420920	655.985247466632	1088.300219837803	216.948512695133	763.744876997874	849.016174656352	203.269552722575	725.014366965771	1102.298122718117	813.934800192293	882.233065477131	894.347805057644	810.742627834832	
3	2.546285714286	759.920926166742	967.673964394257	354.017905224831	554.505240153029	1005.341750646979	523.005961526867	706.001303109733	1439.250139316917	340.042945649795	819.396602726508	1370.027399231395	495.062575216187	742.670837834041	1439.391333635625	674.993810201803	713.667838649477	1498.717429749765	491.926219995213	791.399926247272	942.569158575064	626.238489371135	830.326944069180	740.384123831530	591.757680089780	750.004426925766	632.699370080406	652.252484630854	821.829675738579	580.059943251459	567.500451710461	819.934659358952	490.847153627545	570.986553170961	841.386549376293	779.443759448244	379.822485100494	791.065574189293	652.826691750769	308.713591150390	893.559605336365	588.320184569098	366.789173274856	904.800156770575	498.704951371365	360.831414722545	842.287241133282	430.172203813690	355.777019722818	703.774534381140	376.315920672210	309.356817666765	703.086208580906	247.168357611129	366.368949177893	790.743014865326	402.678200057631	579.933916323020	719.782163582120	299.663567027697	641.807912584289	758.128363096161	205.121697453177	577.749782828516	619.151978529041	42.408458621201	548.371248176513	790.407391284181	97.306012241750	583.828885520781	702.333183530415	36.207908364426	623.571251024727	910.185333925408	46.106812426869	612.869088897588	518.316506851596	164.249908573077	408.082734426325	578.743239132512	125.533858160085	326.155053516899	682.897332831998	145.160575109881	344.932646600274	772.170237961964	43.032421192234	314.510038555667	651.429551220739	1088.828094165325	218.756706777582	751.833332278411	846.838678910349	203.935310884135	730.467102622477	1103.288466159542	815.149478480914	893.187314350627	899.968791378076	809.768054029298	
4	2.559428571429	758.168652505009	968.585583899853	354.508592326431	553.799868862282	1006.212042650796	524.565087925195	705.540932065350	1439.433706167195	340.586148706795	819.831350030860	1370.073811627075	494.945132351046	744.706607248215	1440.143772518928	675.294121331777	714.299390353225	1499.112306110601	492.327022622697	790.864983946079	942.383894674620	626.467137467184	827.979044623134	739.877535772837	591.144343199988	747.408159066964	632.804205063708	652.479603132083	817.996084605339	579.632071628541	567.195421393917	815.451422080731	490.529652584652	570.822202617192	841.069274792867	781.677751950858	380.416633327573	791.427562433343	654.529409435278	309.548000605547	894.062468716090	590.753138586000	367.793872365657	906.596207865728	502.166165097683	362.073775083346	846.960549176302	432.349572398410	356.341722156288	711.485549900220	372.503589745763	309.160896177535	716.838710282142	243.247501160091	365.558135930502	786.143214864739	402.492532228455	579.863348683448	715.005097162794	299.641018916092	641.858186889172	752.996648666341	205.059541658197	577.665476288896	613.643832830204	42.358015076756	548.366172708260	784.935879290531	97.299753642443	583.820861449029	696.838176397221	36.202645165371	623.569111669749	904.688682243698	46.141667313717	612.899205404585	536.591334047883	151.457342572773	406.342884362764	598.790691068170	116.284178332206	324.372742412331	701.592746652177	140.782536478542	343.600170586058	795.574580412731	43.547015380603	312.865093296927	646.418423196530	1089.388180767152	220.790560193509	738.138749128267	844.487806903882	204.716174071287	736.709200762219	1104.411483331217	816.395580667061	905.793502288560	906.831453223320	808.256907292401	
